<svg width="1079" height="1025" viewBox="0 0 1079 1025" fill="none" xmlns="http://www.w3.org/2000/svg">
<g opacity="0.66">
<g opacity="0.5">
<g opacity="0.2">
<path d="M703.265 1014.85L583.409 924.601L549.739 1014.85" stroke="#F9FBFC" stroke-opacity="0.8" stroke-width="0.5" stroke-miterlimit="10"/>
<path d="M853.72 109.988L1075.51 49.5242L921.987 -33.7376L853.72 109.988Z" stroke="#F9FBFC" stroke-opacity="0.8" stroke-width="0.5" stroke-miterlimit="10"/>
<path d="M853.72 109.988L726.398 5.35903L921.987 -33.7376" stroke="#F9FBFC" stroke-opacity="0.8" stroke-width="0.5" stroke-miterlimit="10"/>
<path d="M961.252 1014.85L914.984 890.766L1075.51 1014.85H961.252Z" stroke="#F9FBFC" stroke-opacity="0.8" stroke-width="0.5" stroke-miterlimit="10"/>
<path d="M1075.51 1014.85V768.783L891.135 1014.85H1075.51Z" stroke="#F9FBFC" stroke-opacity="0.8" stroke-width="0.5" stroke-miterlimit="10"/>
<path d="M914.984 890.766L766.358 960.399L907.96 686.071L914.984 890.766Z" stroke="#F9FBFC" stroke-opacity="0.8" stroke-width="0.5" stroke-miterlimit="10"/>
<path d="M961.252 1014.85L766.358 960.397L891.135 1014.85" stroke="#F9FBFC" stroke-opacity="0.8" stroke-width="0.5" stroke-miterlimit="10"/>
<path d="M1075.51 1014.85L907.96 686.071L1075.51 768.786L914.985 890.766L766.359 781.405V960.399L703.266 1014.85L677.818 890.766L766.359 960.399" stroke="#F9FBFC" stroke-opacity="0.8" stroke-width="0.5" stroke-miterlimit="10"/>
<path d="M958.75 924.602L677.818 890.763L766.358 781.402L549.739 768.783L677.818 890.763L583.409 924.602L549.739 768.783" stroke="#F9FBFC" stroke-opacity="0.8" stroke-width="0.5" stroke-miterlimit="10"/>
<path d="M766.358 781.401L754.244 614.562L914.984 890.763L1075.51 646.803L907.96 686.068L766.358 781.401Z" stroke="#F9FBFC" stroke-opacity="0.8" stroke-width="0.5" stroke-miterlimit="10"/>
<path d="M1040.9 618.307L907.96 686.069L754.244 614.564L947.225 541.25L832.248 489.072L907.96 686.069L947.225 541.25L1075.51 646.804" stroke="#F9FBFC" stroke-opacity="0.8" stroke-width="0.5" stroke-miterlimit="10"/>
<path d="M1014.92 738.877L1075.51 457.545L944.427 367.806L947.224 541.249L1075.51 457.545" stroke="#F9FBFC" stroke-opacity="0.8" stroke-width="0.5" stroke-miterlimit="10"/>
<path d="M657.563 475.549L549.737 768.784L386.032 679.991L754.243 614.564L657.563 475.549ZM657.563 475.549L463.216 553.342L486.855 405.831L657.563 475.549Z" stroke="#F9FBFC" stroke-opacity="0.8" stroke-width="0.5" stroke-miterlimit="10"/>
<path d="M430.976 890.765L476.949 1014.85L583.408 924.604L430.976 890.765ZM430.976 890.765L549.738 768.786L754.243 614.565L832.247 489.073L657.564 475.55L766.357 781.404" stroke="#F9FBFC" stroke-opacity="0.8" stroke-width="0.5" stroke-miterlimit="10"/>
<path d="M1075.51 371.089L944.427 367.809L832.248 489.073L715.862 329.238L782.467 302.066L832.248 489.073" stroke="#F9FBFC" stroke-opacity="0.8" stroke-width="0.5" stroke-miterlimit="10"/>
<path d="M782.466 302.064L995.237 182.797L853.719 109.988L944.426 367.807L782.466 302.064ZM782.466 302.064L853.719 109.988L723.622 148.727L782.466 302.064Z" stroke="#F9FBFC" stroke-opacity="0.8" stroke-width="0.5" stroke-miterlimit="10"/>
<path d="M944.49 367.808L995.321 182.735C995.321 182.735 1075.51 303.622 1075.51 308.69L944.49 367.808Z" stroke="#F9FBFC" stroke-opacity="0.8" stroke-width="0.5" stroke-miterlimit="10"/>
<path d="M995.237 182.797L1075.51 49.5232" stroke="#F9FBFC" stroke-opacity="0.8" stroke-width="0.5" stroke-miterlimit="10"/>
<path d="M103.88 752.674L141.736 919.05L322.603 1014.85L430.975 890.764L307.881 823.233L141.736 919.05L23.9622 1014.85" stroke="#F9FBFC" stroke-opacity="0.8" stroke-width="0.5" stroke-miterlimit="10"/>
<path d="M322.602 1014.85L307.88 823.233L103.88 752.674" stroke="#F9FBFC" stroke-opacity="0.8" stroke-width="0.5" stroke-miterlimit="10"/>
<path d="M579.327 51.0183L499.304 175.101L659.287 204.545L579.327 51.0183Z" stroke="#F9FBFC" stroke-opacity="0.8" stroke-width="0.5" stroke-miterlimit="10"/>
<path d="M389.903 657.428L308.366 609.561L361.869 567.499L389.903 657.428Z" stroke="#F9FBFC" stroke-opacity="0.8" stroke-width="0.5" stroke-miterlimit="10"/>
<path d="M68.0433 449.974L121.315 536.475L11.9537 559.335L68.0433 449.974Z" stroke="#F9FBFC" stroke-opacity="0.8" stroke-width="0.39" stroke-miterlimit="10"/>
<path d="M281.151 456.01L363.95 529.325L383.593 468.103L281.151 456.01Z" stroke="#F9FBFC" stroke-opacity="0.8" stroke-width="0.39" stroke-miterlimit="10"/>
<path d="M185.861 206.373L206.892 145.909L143.799 101.744L185.861 206.373Z" stroke="#F9FBFC" stroke-opacity="0.8" stroke-width="0.39" stroke-miterlimit="10"/>
<path d="M322.603 275.291L379.871 376.765L322.603 404.19V275.291Z" stroke="#F9FBFC" stroke-opacity="0.8" stroke-width="0.39" stroke-miterlimit="10"/>
</g>
<path d="M1074.02 644.091L983.775 524.235L1074.02 490.565" stroke="#F9FBFC" stroke-opacity="0.8" stroke-width="0.5" stroke-miterlimit="10"/>
<path d="M169.18 794.547L108.695 1016.34L25.4541 862.814L169.18 794.547Z" stroke="#F9FBFC" stroke-opacity="0.8" stroke-width="0.5" stroke-miterlimit="10"/>
<path d="M169.18 794.547L64.5297 667.225L25.4541 862.814" stroke="#F9FBFC" stroke-opacity="0.8" stroke-width="0.5" stroke-miterlimit="10"/>
<path d="M1074.02 902.061L949.935 855.793L1074.02 1016.34V902.061Z" stroke="#F9FBFC" stroke-opacity="0.8" stroke-width="0.5" stroke-miterlimit="10"/>
<path d="M1074.02 1016.34H827.956L1074.02 831.964V1016.34Z" stroke="#F9FBFC" stroke-opacity="0.8" stroke-width="0.5" stroke-miterlimit="10"/>
<path d="M949.935 855.791L1019.57 707.186L745.24 848.787L949.935 855.791Z" stroke="#F9FBFC" stroke-opacity="0.8" stroke-width="0.5" stroke-miterlimit="10"/>
<path d="M1074.02 902.059L1019.57 707.186L1074.02 831.963" stroke="#F9FBFC" stroke-opacity="0.8" stroke-width="0.5" stroke-miterlimit="10"/>
<path d="M1074.02 1016.34L745.24 848.787L827.955 1016.34L949.935 855.791L840.574 707.186H1019.57L1074.02 644.093L949.935 618.645L1019.57 707.186" stroke="#F9FBFC" stroke-opacity="0.8" stroke-width="0.5" stroke-miterlimit="10"/>
<path d="M983.774 899.576L949.936 618.643L840.574 707.184L827.956 490.565L949.936 618.643L983.774 524.235L827.956 490.565" stroke="#F9FBFC" stroke-opacity="0.8" stroke-width="0.5" stroke-miterlimit="10"/>
<path d="M840.574 707.185L673.735 695.071L949.935 855.79L705.975 1016.34L745.24 848.787L840.574 707.185Z" stroke="#F9FBFC" stroke-opacity="0.8" stroke-width="0.5" stroke-miterlimit="10"/>
<path d="M677.5 981.703L745.241 848.787L673.735 695.071L600.421 888.052L548.243 773.075L745.241 848.787L600.421 888.052L705.976 1016.34" stroke="#F9FBFC" stroke-opacity="0.8" stroke-width="0.5" stroke-miterlimit="10"/>
<path d="M798.049 955.752L516.717 1016.34L426.978 885.235L600.421 888.053L516.717 1016.34" stroke="#F9FBFC" stroke-opacity="0.8" stroke-width="0.5" stroke-miterlimit="10"/>
<path d="M534.72 598.371L827.956 490.566L739.163 326.861L673.735 695.072L534.72 598.371ZM534.72 598.371L612.514 404.045L465.024 427.683L534.72 598.371Z" stroke="#F9FBFC" stroke-opacity="0.8" stroke-width="0.5" stroke-miterlimit="10"/>
<path d="M949.937 371.801L1074.02 417.753L983.776 524.233L949.937 371.801ZM949.937 371.801L827.957 490.563L673.737 695.068L548.245 773.072L534.722 598.368L840.576 707.182" stroke="#F9FBFC" stroke-opacity="0.8" stroke-width="0.5" stroke-miterlimit="10"/>
<path d="M430.259 1016.34L426.978 885.234L548.243 773.075L388.407 656.69L361.235 723.295L548.243 773.075" stroke="#F9FBFC" stroke-opacity="0.8" stroke-width="0.5" stroke-miterlimit="10"/>
<path d="M361.236 723.294L241.969 936.065L169.181 794.547L426.979 885.233L361.236 723.294ZM361.236 723.294L169.181 794.547L207.899 664.449L361.236 723.294Z" stroke="#F9FBFC" stroke-opacity="0.8" stroke-width="0.5" stroke-miterlimit="10"/>
<path d="M426.978 885.255L241.905 936.087C241.905 936.087 362.728 1016.34 367.734 1016.34L426.915 885.255" stroke="#F9FBFC" stroke-opacity="0.8" stroke-width="0.5" stroke-miterlimit="10"/>
<path d="M241.969 936.067L108.696 1016.34" stroke="#F9FBFC" stroke-opacity="0.8" stroke-width="0.5" stroke-miterlimit="10"/>
<path d="M811.846 44.7089L978.223 82.5647L1074.02 263.431L949.936 371.804L882.406 248.71L978.223 82.5647L1074.02 -35.209" stroke="#F9FBFC" stroke-opacity="0.8" stroke-width="0.5" stroke-miterlimit="10"/>
<path d="M1074.02 263.432L882.406 248.71L811.846 44.7095" stroke="#F9FBFC" stroke-opacity="0.8" stroke-width="0.5" stroke-miterlimit="10"/>
<path d="M129.727 377.103L253.81 297.08L283.253 457.063L129.727 377.103Z" stroke="#F9FBFC" stroke-opacity="0.8" stroke-width="0.5" stroke-miterlimit="10"/>
<path d="M169.181 618.647L121.314 537.109L79.2521 590.612L169.181 618.647Z" stroke="#F9FBFC" stroke-opacity="0.8" stroke-width="0.5" stroke-miterlimit="10"/>
<path d="M579.789 52.404L666.311 105.697L689.151 -3.66467L579.789 52.404Z" stroke="#F9FBFC" stroke-opacity="0.8" stroke-width="0.39" stroke-miterlimit="10"/>
<path d="M600.421 263.432L673.735 346.231L612.514 365.874L600.421 263.432Z" stroke="#F9FBFC" stroke-opacity="0.8" stroke-width="0.39" stroke-miterlimit="10"/>
<path d="M169.181 51.0182L108.696 72.0492L64.5307 8.95621L169.181 51.0182Z" stroke="#F9FBFC" stroke-opacity="0.8" stroke-width="0.39" stroke-miterlimit="10"/>
<path d="M169.181 168.287L270.634 225.575L298.08 168.287H169.181Z" stroke="#F9FBFC" stroke-opacity="0.8" stroke-width="0.39" stroke-miterlimit="10"/>
<path d="M-70.8879 657.656L15.6126 710.948L38.4733 601.587L-70.8879 657.656Z" stroke="#F9FBFC" stroke-opacity="0.8" stroke-width="0.39" stroke-miterlimit="10"/>
<path d="M-50.2773 868.682L23.0368 951.502L-38.1845 971.145L-50.2773 868.682Z" stroke="#F9FBFC" stroke-opacity="0.8" stroke-width="0.39" stroke-miterlimit="10"/>
</g>
<path d="M388.409 660.37C390.441 660.37 392.089 658.722 392.089 656.69C392.089 654.657 390.441 653.009 388.409 653.009C386.376 653.009 384.728 654.657 384.728 656.69C384.728 658.722 386.376 660.37 388.409 660.37Z" fill="#8070E8"/>
<g opacity="0.28">
<path d="M534.721 606.828C539.39 606.828 543.175 603.042 543.175 598.373C543.175 593.704 539.39 589.919 534.721 589.919C530.051 589.919 526.266 593.704 526.266 598.373C526.266 603.042 530.051 606.828 534.721 606.828Z" fill="white"/>
<path d="M534.72 590.419C539.113 590.419 542.675 593.98 542.675 598.373C542.675 602.766 539.113 606.328 534.72 606.328C530.327 606.328 526.766 602.766 526.766 598.373C526.766 593.98 530.328 590.419 534.72 590.419Z" stroke="#F9FBFC" stroke-opacity="0.8"/>
</g>
<path d="M840.574 711.116C842.746 711.116 844.507 709.356 844.507 707.184C844.507 705.012 842.746 703.251 840.574 703.251C838.402 703.251 836.642 705.012 836.642 707.184C836.642 709.356 838.402 711.116 840.574 711.116Z" fill="white"/>
<path d="M840.574 703.751C842.47 703.751 844.007 705.288 844.007 707.183C844.007 709.079 842.47 710.616 840.574 710.616C838.678 710.616 837.142 709.079 837.142 707.183C837.142 705.288 838.678 703.751 840.574 703.751Z" stroke="#F9FBFC" stroke-opacity="0.8"/>
<path d="M949.935 622.722C952.188 622.722 954.015 620.895 954.015 618.642C954.015 616.389 952.188 614.562 949.935 614.562C947.681 614.562 945.855 616.389 945.855 618.642C945.855 620.895 947.681 622.722 949.935 622.722Z" fill="white"/>
<path d="M949.935 615.062C951.912 615.062 953.515 616.665 953.515 618.642C953.515 620.619 951.912 622.222 949.935 622.222C947.958 622.222 946.355 620.619 946.355 618.642C946.355 616.665 947.958 615.062 949.935 615.062Z" stroke="#F9FBFC" stroke-opacity="0.8"/>
<path d="M827.955 496.075C830.998 496.075 833.465 493.608 833.465 490.565C833.465 487.522 830.998 485.055 827.955 485.055C824.911 485.055 822.444 487.522 822.444 490.565C822.444 493.608 824.911 496.075 827.955 496.075Z" fill="white"/>
<path d="M827.954 485.555C830.721 485.555 832.965 487.798 832.965 490.564C832.965 493.331 830.721 495.575 827.954 495.575C825.187 495.575 822.944 493.331 822.944 490.564C822.945 487.798 825.187 485.555 827.954 485.555Z" stroke="#F9FBFC" stroke-opacity="0.8"/>
<g opacity="0.28">
<path d="M673.735 698.036C675.372 698.036 676.7 696.708 676.7 695.07C676.7 693.433 675.372 692.105 673.735 692.105C672.097 692.105 670.769 693.433 670.769 695.07C670.769 696.708 672.097 698.036 673.735 698.036Z" fill="white"/>
<path d="M673.734 692.605C675.096 692.605 676.2 693.709 676.2 695.071C676.2 696.432 675.096 697.536 673.734 697.536C672.373 697.535 671.27 696.432 671.269 695.071C671.269 693.709 672.373 692.605 673.734 692.605Z" stroke="#F9FBFC" stroke-opacity="0.8"/>
</g>
<path d="M1019.57 711.116C1021.74 711.116 1023.5 709.356 1023.5 707.184C1023.5 705.012 1021.74 703.251 1019.57 703.251C1017.4 703.251 1015.64 705.012 1015.64 707.184C1015.64 709.356 1017.4 711.116 1019.57 711.116Z" fill="white"/>
<path d="M1019.57 703.751C1021.47 703.751 1023 705.288 1023 707.183C1023 709.079 1021.47 710.616 1019.57 710.616C1017.67 710.616 1016.14 709.079 1016.14 707.183C1016.14 705.288 1017.67 703.751 1019.57 703.751Z" stroke="#F9FBFC" stroke-opacity="0.8"/>
<path d="M745.24 856.317C749.398 856.317 752.769 852.946 752.769 848.787C752.769 844.629 749.398 841.258 745.24 841.258C741.082 841.258 737.711 844.629 737.711 848.787C737.711 852.946 741.082 856.317 745.24 856.317Z" fill="white"/>
<path d="M745.24 841.758C749.122 841.758 752.269 844.906 752.269 848.788C752.269 852.67 749.122 855.817 745.24 855.817C741.358 855.817 738.211 852.67 738.211 848.788C738.211 844.906 741.358 841.758 745.24 841.758Z" stroke="#F9FBFC" stroke-opacity="0.8"/>
<path d="M952.669 855.81C952.669 856.346 952.51 856.871 952.211 857.317C951.913 857.763 951.49 858.111 950.994 858.316C950.498 858.521 949.953 858.575 949.426 858.471C948.9 858.366 948.417 858.108 948.037 857.728C947.658 857.349 947.399 856.865 947.295 856.339C947.19 855.813 947.244 855.267 947.449 854.771C947.655 854.276 948.002 853.852 948.448 853.554C948.895 853.256 949.419 853.097 949.956 853.097C950.675 853.097 951.365 853.383 951.874 853.891C952.383 854.4 952.669 855.09 952.669 855.81Z" fill="white"/>
<path d="M949.956 853.597C950.542 853.597 951.105 853.83 951.52 854.245C951.935 854.66 952.168 855.223 952.168 855.81C952.168 856.192 952.069 856.568 951.881 856.899L951.795 857.039C951.583 857.357 951.292 857.615 950.952 857.786L950.802 857.854C950.448 858.001 950.063 858.052 949.685 858.006L949.524 857.98C949.148 857.906 948.799 857.735 948.51 857.486L948.391 857.375C948.12 857.104 947.925 856.768 947.823 856.4L947.786 856.241C947.711 855.866 947.735 855.478 947.854 855.116L947.912 854.963C948.058 854.609 948.293 854.3 948.593 854.065L948.726 853.97C949.09 853.727 949.518 853.597 949.956 853.597Z" stroke="#F9FBFC" stroke-opacity="0.8"/>
<path d="M827.956 1020.63C830.325 1020.63 832.246 1018.71 832.246 1016.34C832.246 1013.97 830.325 1012.05 827.956 1012.05C825.586 1012.05 823.665 1013.97 823.665 1016.34C823.665 1018.71 825.586 1020.63 827.956 1020.63Z" fill="white"/>
<path d="M827.955 1012.55C830.049 1012.55 831.746 1014.25 831.746 1016.34C831.746 1018.43 830.049 1020.13 827.955 1020.13C825.862 1020.13 824.165 1018.43 824.165 1016.34C824.166 1014.25 825.862 1012.55 827.955 1012.55Z" stroke="#F9FBFC" stroke-opacity="0.8"/>
<g opacity="0.28">
<path d="M600.421 890.85C601.966 890.85 603.218 889.597 603.218 888.053C603.218 886.508 601.966 885.255 600.421 885.255C598.876 885.255 597.624 886.508 597.624 888.053C597.624 889.597 598.876 890.85 600.421 890.85Z" fill="white"/>
<path d="M600.421 885.755C601.689 885.755 602.718 886.784 602.718 888.052C602.718 889.321 601.689 890.35 600.421 890.35C599.152 890.35 598.124 889.321 598.124 888.052C598.124 886.784 599.152 885.756 600.421 885.755Z" stroke="#F9FBFC" stroke-opacity="0.8"/>
</g>
<g opacity="0.28">
<path d="M426.979 890.325C429.79 890.325 432.069 888.046 432.069 885.235C432.069 882.424 429.79 880.146 426.979 880.146C424.168 880.146 421.89 882.424 421.89 885.235C421.89 888.046 424.168 890.325 426.979 890.325Z" fill="white"/>
<path d="M426.979 880.646C429.514 880.646 431.568 882.701 431.568 885.236C431.568 887.77 429.514 889.824 426.979 889.824C424.445 889.824 422.39 887.77 422.39 885.236C422.39 882.701 424.445 880.646 426.979 880.646Z" stroke="#F9FBFC" stroke-opacity="0.8"/>
</g>
<g opacity="0.28">
<path d="M207.898 667.224C209.432 667.224 210.675 665.981 210.675 664.447C210.675 662.914 209.432 661.671 207.898 661.671C206.365 661.671 205.122 662.914 205.122 664.447C205.122 665.981 206.365 667.224 207.898 667.224Z" fill="white"/>
<path d="M207.899 662.171C209.156 662.172 210.174 663.191 210.174 664.448C210.174 665.705 209.156 666.723 207.899 666.723C206.642 666.723 205.623 665.705 205.622 664.448C205.622 663.191 206.642 662.171 207.899 662.171Z" stroke="#F9FBFC" stroke-opacity="0.8"/>
</g>
<g opacity="0.28">
<path d="M363.947 531.364C365.074 531.364 365.987 530.451 365.987 529.324C365.987 528.198 365.074 527.284 363.947 527.284C362.82 527.284 361.907 528.198 361.907 529.324C361.907 530.451 362.82 531.364 363.947 531.364Z" fill="white"/>
<path d="M363.947 527.784C364.798 527.784 365.487 528.474 365.487 529.324C365.487 530.175 364.798 530.864 363.947 530.865C363.097 530.865 362.407 530.175 362.407 529.324C362.407 528.474 363.097 527.784 363.947 527.784Z" stroke="#F9FBFC" stroke-opacity="0.8"/>
</g>
<g opacity="0.28">
<path d="M660.886 475.55C660.886 476.212 660.689 476.859 660.321 477.41C659.952 477.96 659.429 478.388 658.816 478.641C658.204 478.893 657.531 478.958 656.881 478.828C656.232 478.697 655.636 478.376 655.17 477.907C654.703 477.437 654.386 476.839 654.259 476.189C654.133 475.539 654.202 474.866 654.458 474.255C654.715 473.645 655.147 473.124 655.699 472.759C656.252 472.394 656.9 472.201 657.563 472.206C658.446 472.211 659.291 472.566 659.914 473.192C660.536 473.819 660.886 474.666 660.886 475.55Z" fill="white"/>
<path d="M657.56 472.706C658.217 472.71 658.849 472.941 659.352 473.356L659.559 473.544C660.088 474.077 660.385 474.798 660.385 475.549L660.377 475.76C660.346 476.179 660.223 476.587 660.016 476.953L659.905 477.131C659.631 477.541 659.256 477.871 658.818 478.091L658.625 478.178C658.17 478.366 657.674 478.433 657.188 478.372L656.98 478.337C656.497 478.24 656.049 478.019 655.678 477.698L655.524 477.554C655.177 477.205 654.927 476.771 654.798 476.298L654.75 476.093C654.656 475.61 654.689 475.111 654.845 474.646L654.919 474.449C655.11 473.994 655.415 473.598 655.803 473.298L655.975 473.176C656.386 472.905 656.86 472.746 657.349 472.712L657.56 472.706Z" stroke="#F9FBFC" stroke-opacity="0.8"/>
</g>
<path d="M754.242 618.645C756.495 618.645 758.322 616.819 758.322 614.565C758.322 612.312 756.495 610.485 754.242 610.485C751.988 610.485 750.161 612.312 750.161 614.565C750.161 616.819 751.988 618.645 754.242 618.645Z" fill="white"/>
<path d="M754.242 610.985C756.219 610.985 757.822 612.588 757.822 614.565C757.822 616.542 756.219 618.145 754.242 618.145C752.264 618.145 750.662 616.542 750.661 614.565C750.661 612.588 752.264 610.985 754.242 610.985Z" stroke="#F9FBFC" stroke-opacity="0.8"/>
<path d="M952.9 371.784C952.904 372.35 952.74 372.905 952.428 373.378C952.117 373.852 951.671 374.222 951.149 374.441C950.627 374.661 950.051 374.721 949.495 374.613C948.939 374.505 948.427 374.234 948.025 373.835C947.623 373.436 947.348 372.926 947.236 372.371C947.124 371.815 947.18 371.239 947.395 370.715C947.611 370.191 947.978 369.743 948.449 369.428C948.92 369.113 949.473 368.945 950.04 368.945C950.795 368.945 951.519 369.243 952.055 369.775C952.591 370.307 952.895 371.029 952.9 371.784Z" fill="white"/>
<path d="M950.04 369.445C950.585 369.445 951.111 369.633 951.53 369.974L951.703 370.13C952.09 370.514 952.33 371.018 952.387 371.555L952.4 371.787C952.403 372.197 952.3 372.599 952.102 372.954L952.011 373.104C951.786 373.445 951.476 373.721 951.113 373.906L950.955 373.981C950.578 374.139 950.167 374.197 949.763 374.149L949.59 374.121C949.188 374.043 948.815 373.863 948.506 373.599L948.377 373.48C948.087 373.192 947.877 372.834 947.768 372.442L947.727 372.272C947.646 371.871 947.67 371.456 947.797 371.07L947.857 370.906C948.013 370.527 948.264 370.197 948.585 369.947L948.727 369.844C949.067 369.616 949.459 369.482 949.865 369.451L950.04 369.445Z" stroke="#F9FBFC" stroke-opacity="0.8"/>
<path d="M882.406 252.516C884.508 252.516 886.212 250.812 886.212 248.71C886.212 246.607 884.508 244.903 882.406 244.903C880.304 244.903 878.599 246.607 878.599 248.71C878.599 250.812 880.304 252.516 882.406 252.516Z" fill="white"/>
<path d="M882.406 245.403C884.232 245.403 885.713 246.883 885.713 248.71C885.713 250.536 884.232 252.016 882.406 252.016C880.58 252.016 879.099 250.536 879.099 248.71C879.099 246.883 880.58 245.403 882.406 245.403Z" stroke="#F9FBFC" stroke-opacity="0.8"/>
<path d="M811.846 49.5223C814.506 49.5223 816.662 47.366 816.662 44.7062C816.662 42.0463 814.506 39.8901 811.846 39.8901C809.186 39.8901 807.03 42.0463 807.03 44.7062C807.03 47.366 809.186 49.5223 811.846 49.5223Z" fill="white"/>
<path d="M811.846 40.3901C814.23 40.3903 816.161 42.3229 816.161 44.7065C816.161 47.0899 814.23 49.0217 811.846 49.0219C809.462 49.0219 807.53 47.0901 807.53 44.7065C807.53 42.3228 809.462 40.3901 811.846 40.3901Z" stroke="#F9FBFC" stroke-opacity="0.8"/>
<path d="M983.794 902.059C985.165 902.059 986.276 900.948 986.276 899.577C986.276 898.207 985.165 897.096 983.794 897.096C982.424 897.096 981.313 898.207 981.313 899.577C981.313 900.948 982.424 902.059 983.794 902.059Z" fill="white"/>
<path d="M983.794 897.596C984.889 897.596 985.775 898.483 985.776 899.577C985.776 900.672 984.889 901.559 983.794 901.559C982.7 901.558 981.813 900.672 981.813 899.577C981.813 898.483 982.7 897.596 983.794 897.596Z" stroke="#F9FBFC" stroke-opacity="0.8"/>
<path d="M798.048 959.788C800.278 959.788 802.086 957.98 802.086 955.75C802.086 953.52 800.278 951.712 798.048 951.712C795.818 951.712 794.01 953.52 794.01 955.75C794.01 957.98 795.818 959.788 798.048 959.788Z" fill="white"/>
<path d="M798.048 952.212C800.002 952.212 801.587 953.797 801.587 955.75C801.586 957.704 800.002 959.288 798.048 959.289C796.095 959.289 794.51 957.704 794.51 955.75C794.51 953.796 796.095 952.212 798.048 952.212Z" stroke="#F9FBFC" stroke-opacity="0.8"/>
<g opacity="0.28">
<path d="M241.968 940.06C244.175 940.06 245.964 938.271 245.964 936.064C245.964 933.857 244.175 932.068 241.968 932.068C239.762 932.068 237.973 933.857 237.973 936.064C237.973 938.271 239.762 940.06 241.968 940.06Z" fill="white"/>
<path d="M241.969 932.568C243.899 932.569 245.465 934.134 245.465 936.065C245.465 937.995 243.899 939.56 241.969 939.561C240.038 939.561 238.473 937.995 238.473 936.065C238.473 934.134 240.038 932.568 241.969 932.568Z" stroke="#F9FBFC" stroke-opacity="0.8"/>
</g>
<g opacity="0.28">
<path d="M25.4336 868.344C28.4883 868.344 30.9647 865.868 30.9647 862.813C30.9647 859.758 28.4883 857.282 25.4336 857.282C22.3788 857.282 19.9025 859.758 19.9025 862.813C19.9025 865.868 22.3788 868.344 25.4336 868.344Z" fill="white"/>
<path d="M25.4337 857.782C28.2123 857.782 30.465 860.034 30.465 862.813C30.4649 865.591 28.2122 867.844 25.4337 867.844C22.6551 867.844 20.4025 865.591 20.4025 862.813C20.4025 860.034 22.6551 857.782 25.4337 857.782Z" stroke="#F9FBFC" stroke-opacity="0.8"/>
</g>
<g opacity="0.28">
<path d="M64.5306 671.792C67.051 671.792 69.0942 669.748 69.0942 667.228C69.0942 664.707 67.051 662.664 64.5306 662.664C62.0101 662.664 59.9668 664.707 59.9668 667.228C59.9668 669.748 62.0101 671.792 64.5306 671.792Z" fill="white"/>
<path d="M64.5303 663.164C66.7745 663.164 68.5946 664.983 68.5947 667.228C68.5947 669.472 66.7746 671.292 64.5303 671.292C62.2861 671.292 60.4668 669.472 60.4668 667.228C60.4669 664.983 62.2862 663.164 64.5303 663.164Z" stroke="#F9FBFC" stroke-opacity="0.8"/>
</g>
<g opacity="0.28">
<path d="M311.265 609.579C311.203 610.304 310.872 610.979 310.337 611.47C309.801 611.962 309.101 612.235 308.374 612.235C307.647 612.235 306.946 611.962 306.411 611.47C305.875 610.979 305.544 610.304 305.482 609.579C305.448 609.179 305.497 608.776 305.627 608.395C305.757 608.015 305.964 607.666 306.236 607.37C306.508 607.074 306.838 606.837 307.206 606.676C307.574 606.514 307.972 606.43 308.374 606.43C308.775 606.43 309.173 606.514 309.541 606.676C309.909 606.837 310.239 607.074 310.511 607.37C310.783 607.666 310.991 608.015 311.12 608.395C311.25 608.776 311.299 609.179 311.265 609.579Z" fill="white"/>
<path d="M308.374 606.93C308.623 606.93 308.87 606.97 309.107 607.046L309.339 607.133C309.568 607.234 309.779 607.369 309.965 607.534L310.143 607.708C310.312 607.891 310.45 608.1 310.554 608.326L310.647 608.557C310.727 608.793 310.77 609.04 310.775 609.288L310.767 609.537C310.722 610.061 310.507 610.554 310.157 610.942L309.999 611.102C309.555 611.509 308.975 611.735 308.374 611.735C307.847 611.735 307.338 611.562 306.921 611.246L306.749 611.102C306.361 610.746 306.102 610.274 306.009 609.759L305.98 609.537C305.959 609.288 305.976 609.039 306.032 608.797L306.1 608.557C306.181 608.321 306.298 608.1 306.446 607.9L306.604 607.708C306.773 607.524 306.969 607.368 307.185 607.245L307.407 607.133C307.635 607.033 307.878 606.969 308.125 606.943L308.374 606.93Z" stroke="#F9FBFC" stroke-opacity="0.8"/>
</g>
<path d="M1074.02 647.944C1076.14 647.944 1077.87 646.221 1077.87 644.095C1077.87 641.969 1076.14 640.246 1074.02 640.246C1071.89 640.246 1070.17 641.969 1070.17 644.095C1070.17 646.221 1071.89 647.944 1074.02 647.944Z" fill="white"/>
<path d="M1074.02 640.746C1075.87 640.746 1077.37 642.246 1077.37 644.095C1077.37 645.944 1075.87 647.444 1074.02 647.444C1072.17 647.444 1070.67 645.944 1070.67 644.095C1070.67 642.246 1072.17 640.746 1074.02 640.746Z" stroke="#F9FBFC" stroke-opacity="0.8"/>
<path d="M983.794 528.005C985.874 528.005 987.559 526.319 987.559 524.24C987.559 522.161 985.874 520.476 983.794 520.476C981.715 520.476 980.03 522.161 980.03 524.24C980.03 526.319 981.715 528.005 983.794 528.005Z" fill="white"/>
<path d="M983.795 520.976C985.597 520.976 987.059 522.437 987.059 524.24C987.059 526.043 985.597 527.505 983.795 527.505C981.992 527.505 980.53 526.043 980.53 524.24C980.53 522.437 981.992 520.976 983.795 520.976Z" stroke="#F9FBFC" stroke-opacity="0.8"/>
<path d="M786.609 302.065C786.609 302.896 786.362 303.71 785.9 304.401C785.438 305.093 784.781 305.632 784.012 305.951C783.244 306.269 782.398 306.352 781.582 306.19C780.766 306.028 780.017 305.627 779.428 305.039C778.84 304.451 778.439 303.701 778.277 302.885C778.115 302.069 778.198 301.223 778.516 300.455C778.835 299.686 779.374 299.029 780.066 298.567C780.757 298.105 781.571 297.858 782.402 297.858C783.518 297.858 784.588 298.301 785.377 299.09C786.166 299.879 786.609 300.949 786.609 302.065Z" fill="white"/>
<path d="M782.402 298.358C783.324 298.358 784.21 298.702 784.89 299.317L785.023 299.444C785.718 300.139 786.108 301.082 786.108 302.064C786.108 302.706 785.942 303.335 785.628 303.891L785.484 304.124C785.077 304.733 784.498 305.208 783.82 305.488C783.228 305.734 782.584 305.821 781.95 305.743L781.68 305.699C781.051 305.574 780.466 305.289 779.982 304.872L779.782 304.685C779.329 304.232 779.002 303.67 778.831 303.055L778.768 302.788C778.642 302.159 778.683 301.509 778.883 300.903L778.979 300.646C779.259 299.969 779.734 299.391 780.344 298.983C780.953 298.576 781.669 298.358 782.402 298.358Z" stroke="#F9FBFC" stroke-opacity="0.8"/>
<g opacity="0.28">
<path d="M600.421 267.154C602.476 267.154 604.143 265.488 604.143 263.432C604.143 261.376 602.476 259.709 600.421 259.709C598.365 259.709 596.698 261.376 596.698 263.432C596.698 265.488 598.365 267.154 600.421 267.154Z" fill="white"/>
<path d="M600.421 260.209C602.2 260.209 603.643 261.652 603.643 263.432C603.643 265.212 602.2 266.655 600.421 266.655C598.641 266.655 597.198 265.212 597.198 263.432C597.198 261.652 598.641 260.209 600.421 260.209Z" stroke="#F9FBFC" stroke-opacity="0.8"/>
</g>
<g opacity="0.28">
<path d="M584.71 52.4077C584.71 51.4385 584.423 50.4911 583.884 49.6853C583.346 48.8794 582.581 48.2514 581.685 47.8805C580.79 47.5096 579.804 47.4125 578.854 47.6016C577.903 47.7907 577.03 48.2574 576.345 48.9427C575.66 49.628 575.193 50.5011 575.004 51.4517C574.815 52.4022 574.912 53.3875 575.283 54.2829C575.654 55.1783 576.282 55.9436 577.088 56.4821C577.893 57.0205 578.841 57.3079 579.81 57.3079C581.108 57.3024 582.351 56.7843 583.269 55.8665C584.186 54.9488 584.705 53.7056 584.71 52.4077Z" fill="white"/>
<path d="M578.952 48.0924C579.699 47.9439 580.469 47.9916 581.189 48.2291L581.494 48.3424C582.298 48.6755 582.985 49.2399 583.468 49.9635C583.891 50.5967 584.142 51.3269 584.198 52.0826L584.21 52.4078C584.205 53.5001 583.796 54.5493 583.066 55.3551L582.916 55.5133C582.091 56.3375 580.975 56.8019 579.809 56.8073C578.939 56.8071 578.089 56.5493 577.366 56.066C576.733 55.643 576.221 55.0641 575.88 54.3873L575.745 54.0914C575.453 53.388 575.35 52.6228 575.443 51.8707L575.495 51.5494C575.643 50.8026 575.982 50.1088 576.477 49.5348L576.699 49.2965C577.237 48.758 577.905 48.37 578.635 48.1676L578.952 48.0924Z" stroke="#F9FBFC" stroke-opacity="0.8"/>
</g>
<path d="M1073.41 54.3417C1076.07 54.3417 1078.22 52.1854 1078.22 49.5256C1078.22 46.8657 1076.07 44.7095 1073.41 44.7095C1070.75 44.7095 1068.59 46.8657 1068.59 49.5256C1068.59 52.1854 1070.75 54.3417 1073.41 54.3417Z" fill="white"/>
<path d="M1073.41 45.2095C1075.79 45.2097 1077.72 47.1423 1077.72 49.5259C1077.72 51.9093 1075.79 53.8411 1073.41 53.8413C1071.02 53.8413 1069.09 51.9095 1069.09 49.5259C1069.09 47.1422 1071.02 45.2095 1073.41 45.2095Z" stroke="#F9FBFC" stroke-opacity="0.8"/>
<path d="M548.243 777.873C550.892 777.873 553.038 775.726 553.038 773.078C553.038 770.43 550.892 768.283 548.243 768.283C545.595 768.283 543.448 770.43 543.448 773.078C543.448 775.726 545.595 777.873 548.243 777.873Z" fill="#8070E8"/>
<g opacity="0.28">
<path d="M516.718 1024.75C521.364 1024.75 525.13 1020.99 525.13 1016.34C525.13 1011.69 521.364 1007.93 516.718 1007.93C512.072 1007.93 508.306 1011.69 508.306 1016.34C508.306 1020.99 512.072 1024.75 516.718 1024.75Z" fill="white"/>
<path d="M516.718 1008.43C521.087 1008.43 524.631 1011.97 524.631 1016.34C524.631 1020.71 521.088 1024.25 516.718 1024.25C512.348 1024.25 508.806 1020.71 508.806 1016.34C508.806 1011.97 512.348 1008.43 516.718 1008.43Z" stroke="#F9FBFC" stroke-opacity="0.8"/>
</g>
<g opacity="0.28">
<path d="M303.694 839.259C303.694 840.731 303.258 842.17 302.44 843.395C301.622 844.619 300.459 845.573 299.099 846.137C297.738 846.7 296.241 846.848 294.797 846.56C293.353 846.273 292.026 845.564 290.985 844.523C289.944 843.482 289.235 842.155 288.948 840.711C288.66 839.267 288.808 837.77 289.371 836.41C289.935 835.049 290.889 833.886 292.113 833.068C293.338 832.25 294.777 831.814 296.249 831.814C297.228 831.811 298.197 832.002 299.102 832.375C300.006 832.748 300.828 833.296 301.52 833.988C302.212 834.68 302.76 835.502 303.133 836.406C303.507 837.311 303.697 838.28 303.694 839.259Z" fill="white"/>
<path d="M296.25 832.314H296.251C297.049 832.311 297.841 832.447 298.592 832.714L298.911 832.837C299.755 833.185 300.522 833.697 301.167 834.342C301.731 834.906 302.193 835.564 302.533 836.284L302.671 836.597C302.975 837.335 303.15 838.119 303.187 838.915L303.194 839.257V839.259C303.194 840.632 302.787 841.975 302.024 843.117C301.309 844.188 300.311 845.037 299.143 845.572L298.907 845.675C297.717 846.168 296.416 846.319 295.147 846.115L294.894 846.07C293.631 845.819 292.465 845.222 291.524 844.348L291.339 844.169C290.367 843.198 289.706 841.961 289.438 840.613C289.187 839.35 289.292 838.044 289.739 836.84L289.833 836.601C290.326 835.411 291.139 834.384 292.18 833.631L292.391 833.484C293.462 832.769 294.709 832.366 295.992 832.318L296.25 832.314Z" stroke="#F9FBFC" stroke-opacity="0.8"/>
</g>
<path d="M766.355 784.559C768.098 784.559 769.51 783.147 769.51 781.404C769.51 779.662 768.098 778.25 766.355 778.25C764.613 778.25 763.201 779.662 763.201 781.404C763.201 783.147 764.613 784.559 766.355 784.559Z" fill="white"/>
<path d="M766.355 778.75C767.821 778.75 769.01 779.938 769.01 781.404C769.01 782.87 767.821 784.059 766.355 784.059C764.889 784.059 763.701 782.87 763.701 781.404C763.701 779.938 764.889 778.75 766.355 778.75Z" stroke="#F9FBFC" stroke-opacity="0.8"/>
<path d="M1074.02 836.504C1076.53 836.504 1078.56 834.47 1078.56 831.961C1078.56 829.452 1076.53 827.419 1074.02 827.419C1071.51 827.419 1069.48 829.452 1069.48 831.961C1069.48 834.47 1071.51 836.504 1074.02 836.504Z" fill="white"/>
<path d="M1074.02 827.919C1076.25 827.919 1078.06 829.729 1078.06 831.961C1078.06 834.194 1076.25 836.003 1074.02 836.003C1071.79 836.003 1069.98 834.194 1069.98 831.961C1069.98 829.729 1071.79 827.919 1074.02 827.919Z" stroke="#F9FBFC" stroke-opacity="0.8"/>
<path d="M847.325 798.61C848.719 798.61 849.849 797.48 849.849 796.086C849.849 794.692 848.719 793.563 847.325 793.563C845.931 793.563 844.801 794.692 844.801 796.086C844.801 797.48 845.931 798.61 847.325 798.61Z" fill="white"/>
<path d="M847.325 794.063C848.442 794.063 849.349 794.968 849.349 796.086C849.349 797.204 848.442 798.11 847.325 798.11C846.207 798.11 845.301 797.204 845.301 796.086C845.301 794.968 846.207 794.063 847.325 794.063Z" stroke="#F9FBFC" stroke-opacity="0.8"/>
</g>
</svg>
