<?xml version="1.0" encoding="UTF-8"?>
<svg xmlns="http://www.w3.org/2000/svg" xmlns:xlink="http://www.w3.org/1999/xlink" version="1.1" viewBox="0 0 1051 385">
  <defs>
    <style>
      .cls-1 {
        fill: none;
      }

      .cls-2 {
        fill: url(#linear-gradient-2);
      }

      .cls-3 {
        fill: url(#linear-gradient);
      }

      .cls-4 {
        fill: #ffffff;
      }

      .cls-5 {
        clip-path: url(#clippath);
      }
    </style>
    <clipPath id="clippath">
      <rect class="cls-1" x="-265" y="-406" width="1600" height="1200"/>
    </clipPath>
    <linearGradient id="linear-gradient" x1="300.5" y1="106.3" x2="206" y2="292.2" gradientTransform="translate(0 388) scale(1 -1)" gradientUnits="userSpaceOnUse">
      <stop offset="0" stop-color="#4159d8"/>
      <stop offset=".5" stop-color="#e30fa0"/>
      <stop offset="1" stop-color="#e87d29"/>
    </linearGradient>
    <linearGradient id="linear-gradient-2" x1="230.6" y1="71.2" x2="136.1" y2="257" gradientTransform="translate(0 388) scale(1 -1)" gradientUnits="userSpaceOnUse">
      <stop offset="0" stop-color="#4159d8"/>
      <stop offset=".5" stop-color="#e30fa0"/>
      <stop offset="1" stop-color="#e87d29"/>
    </linearGradient>
  </defs>
  <!-- Generator: Adobe Illustrator 28.7.1, SVG Export Plug-In . SVG Version: 1.2.0 Build 142)  -->
  <g>
    <g id="Layer_1">
      <g class="cls-5">
        <g>
          <g>
            <path class="cls-4" d="M371,144h24l28.9,66.3,29.3-66.3h24.9v99h-20v-67.3l-29.4,67.3h-8.1l-29.4-67.3v67.3h-20v-99h0Z"/>
            <path class="cls-4" d="M493.8,161.5c-2.1-1.9-3.1-4.4-3.1-7.4s1-5.5,3.1-7.4,4.7-2.9,7.9-2.9,5.6,1,7.7,2.9,3,4.4,3,7.4-1,5.5-3,7.4-4.6,2.9-7.7,2.9-5.8-1-7.9-2.9ZM492,173h19v69h-19v-69Z"/>
            <path class="cls-4" d="M584.4,178.1c4.4,4.7,6.6,11.5,6.6,20.4v43.5h-19v-39.7c0-5.4-1.1-9.4-3.3-11.9s-5.6-3.7-10.1-3.7-8.3,1.4-10.8,4.1-3.7,6.8-3.7,12.1v39h-19v-69h19v8.4c4.8-6.9,12-10.3,21.4-10.3,8.2,0,14.5,2.4,19,7.1Z"/>
            <path class="cls-4" d="M673,144v99h-19v-8.7c-5.3,6.7-12.7,10.1-22.4,10.1s-12.2-1.5-16.9-4.4c-4.7-3-8.3-7.1-10.7-12.6-2.5-5.8-3.8-12.3-3.8-19.5s1.3-14,3.8-19.7c2.4-5.4,6-9.6,10.7-12.6,4.7-3,10.4-4.5,16.9-4.5,9.4,0,22.4,9.7,22.4,9.7v-36.9h19ZM654,206c0-6-1.4-10.6-4.2-13.8-2.8-3.2-6.8-4.8-11.9-4.8s-6.4.7-8.9,2.2-4.3,3.6-5.5,6.4c-1.3,2.7-2,6.7-2,12.1s.7,9.2,2,12.1c1.3,2.7,3.2,4.8,5.6,6.2,2.4,1.5,5.4,2.2,8.8,2.2,5.2,0,9.1-1.6,11.9-4.8,2.8-3.2,4.2-7.8,4.2-13.8v-3.8h0Z"/>
            <path class="cls-4" d="M701,241.8c-3.4-1.6-5.9-4.2-7.6-7.7-1.6-3.5-2.5-8.1-2.5-13.9v-31.2h-10v-16h11v-17h19v17h18v16h-18v28.5c0,3.7.8,6.5,2.5,8.1,1.6,1.7,4.1,2.5,7.5,2.5s5.4-.3,8.1-1v15.4c-5.7,1.1-10.5,1.6-14.6,1.6-5.5,0-9.9-.8-13.4-2.4Z"/>
            <path class="cls-4" d="M785.3,222.9c.6-1.3,1.1-2.6,1.3-3.9h19.4c-.6,6.6-3.3,12.2-8.1,16.7-3.2,2.8-7,4.9-11.6,6.4s-9.6,2.2-15,2.2c-8.3,0-15.3-1.6-21.2-4.8-5.9-3.2-10.1-7.8-12.8-13.9-2.2-4.7-3.3-10.7-3.3-17.9s.3-6.7.8-9.5,1.4-5.4,2.5-7.9c2.6-6,6.7-10.6,12.3-13.9,5.6-3.3,12.4-4.9,20.4-4.9s14.7,1.6,20.4,4.9,9.9,7.9,12.5,13.9c1.3,3.3,2.2,6.6,2.7,10,.5,3.4.8,7.6.8,12.6h-53c.3,3.4.9,6.3,1.8,8.5,2.5,5.5,7.7,8.2,15.6,8.2s9.5-1.2,12-3.6c1-.8,1.9-1.9,2.5-3.2ZM755.1,194.7c-.8,2.1-1.4,4.2-1.7,6.3h33.4c-.2-2.3-.8-4.5-1.7-6.6-1.3-2.7-3.2-4.8-5.7-6.1-2.5-1.4-5.5-2-9.2-2-7.6,0-12.6,2.8-15.2,8.4Z"/>
            <path class="cls-4" d="M830.4,239.3c-5.6-3.1-9.7-7.6-12.4-13.5-2.2-5.1-3.3-11-3.3-17.6s1.1-12.7,3.3-17.6c2.7-6,6.8-10.5,12.3-13.7s12.2-4.8,20-4.8,10.2.7,14.5,2.2c4.4,1.5,8.1,3.6,11.2,6.5,2.7,2.4,4.8,5.2,6.3,8.5,1.5,3.3,2.3,6.9,2.4,10.8h-20.7c-.3-3.7-1.6-6.7-3.9-9-1.2-1-2.6-1.8-4.3-2.3-1.7-.5-3.5-.8-5.4-.8-3.1,0-5.8.7-8.1,2-2.3,1.3-4,3.3-5.2,5.9-.6,1.6-1.1,3.3-1.4,5.2-.3,1.9-.5,4.3-.5,7s.2,5.2.5,7.2.8,3.6,1.4,5.1c1.2,2.6,2.9,4.5,5.2,5.9s5,2,8.1,2,4-.3,5.6-.8,3-1.3,4.1-2.3c1.2-1.1,2.1-2.4,2.8-4,.6-1.6,1-3.2,1.1-5h20.7c-.3,8-3.1,14.5-8.5,19.4-3.1,2.8-6.9,4.9-11.3,6.3-4.4,1.5-9.3,2.2-14.6,2.2-7.7,0-14.4-1.6-20-4.7Z"/>
            <path class="cls-4" d="M955.4,178.7c4.4,4.7,6.6,11.6,6.6,20.5v43.7h-19v-39.7c0-5.4-1.1-9.4-3.3-11.9-2.2-2.5-5.6-3.7-10.1-3.7s-8.3,1.4-10.8,4.1-3.7,6.8-3.7,12.1v39h-19v-99h19v38c4.8-6.9,12-10.4,21.4-10.4,8.2,0,14.5,2.4,19,7.1Z"/>
          </g>
          <g>
            <path class="cls-3" d="M302.3,194c8.8-6.1,14.5-16.1,14.5-27.6,0-18.3-14.6-33.1-32.8-33.5v-17.2c0-5.3-3.3-12.4-7.4-15.8-28-23.1-59.6-3.6-59.6,23.3v141.6c0,9.3,3.7,17.6,9.8,23.7,11.5,11.6,31.5,14.7,49.8-.4,4.1-3.4,7.4-10.5,7.4-15.8v-17.2c18.2-.4,32.8-15.2,32.8-33.5,0-11.4-5.7-21.5-14.5-27.6ZM282.8,213.1c.3,0,.5,0,.8,0,5,0,9,4,8.8,8.9s-3.9,8.2-8.4,8.4-9.3-3.7-9.3-8.6.1-1.5.3-2.3l-15.3-17.8-4.9,5.7v50.7c2.7,1.9,4.3,5.1,3.6,8.7s-3.5,6.1-6.9,6.8c-5.7,1.1-10.6-3.1-10.6-8.4s1.5-5.6,3.8-7.1v-54.2l8.4-9.7-8.4-9.7v-54.2c-2.8-1.8-4.4-5.2-3.7-8.8s3.8-6.4,7.5-6.9c5.4-.7,10,3.4,10,8.5s-1.5,5.5-3.8,7.1v50.7l4.9,5.7,15.3-17.8c-.7-2.4-.7-5,2.8-8.5s3-2.2,4.9-2.4c5.2-.4,9.6,3.6,9.6,8.6s-4,8.6-8.8,8.6-.5,0-.8,0l-16.4,19.1,16.4,19.1Z"/>
            <path class="cls-2" d="M140,115.7v17.2c-18.2.4-32.8,15.2-32.8,33.5s5.7,21.5,14.5,27.6c-8.8,6.1-14.5,16.1-14.5,27.6,0,18.3,14.6,33.1,32.8,33.5v17.2c0,5.3,3.3,12.4,7.4,15.8,28,23.1,59.6,3.6,59.6-23.3V123.2c0-9.3-3.7-17.6-9.8-23.7-11.5-11.6-31.5-14.7-49.8.4s-7.4,10.5-7.4,15.8ZM178,203.7v54.2c2.8,1.8,4.4,5.2,3.7,8.8s-3.8,6.4-7.5,6.9c-5.4.7-10-3.4-10-8.5s1.5-5.5,3.8-7.1v-50.7l-4.9-5.7-15.3,17.8c.7,2.4.7,5-2.8,8.5s-3,2.2-4.9,2.4c-5.2.4-9.6-3.6-9.6-8.6s4-8.6,8.8-8.6.5,0,.8,0l16.4-19.1-16.4-19.1c-.3,0-.5,0-.8,0-5,0-9-4-8.8-8.9s3.9-8.2,8.4-8.4,9.3,3.7,9.3,8.6-.1,1.5-.3,2.3l15.3,17.8,4.9-5.7v-50.7c-2.7-1.9-4.3-5.1-3.6-8.7s3.5-6.1,6.9-6.8c5.7-1.1,10.6,3.1,10.6,8.4s-1.5,5.6-3.8,7.1v54.2l-8.4,9.7,8.4,9.7Z"/>
          </g>
        </g>
      </g>
    </g>
  </g>
</svg>