<svg width="14" height="17" viewBox="0 0 14 17" fill="none" xmlns="http://www.w3.org/2000/svg">
<path d="M11.7136 5.91385V4.96452C11.7136 3.72684 11.2219 2.53986 10.3467 1.66469C9.47158 0.789517 8.28459 0.297852 7.04692 0.297852C5.80924 0.297852 4.62225 0.789517 3.74708 1.66469C2.87191 2.53986 2.38025 3.72684 2.38025 4.96452V5.91385C1.78649 6.17299 1.28111 6.59953 0.925915 7.14133C0.570719 7.68312 0.381101 8.31667 0.380249 8.96452V12.9645C0.381308 13.8482 0.732837 14.6955 1.35773 15.3204C1.98262 15.9453 2.82985 16.2968 3.71358 16.2979H10.3802C11.264 16.2968 12.1112 15.9453 12.7361 15.3204C13.361 14.6955 13.7125 13.8482 13.7136 12.9645V8.96452C13.7127 8.31667 13.5231 7.68312 13.1679 7.14133C12.8127 6.59953 12.3073 6.17299 11.7136 5.91385ZM3.71358 4.96452C3.71358 4.08046 4.06477 3.23262 4.68989 2.6075C5.31501 1.98237 6.16286 1.63118 7.04692 1.63118C7.93097 1.63118 8.77882 1.98237 9.40394 2.6075C10.0291 3.23262 10.3802 4.08046 10.3802 4.96452V5.63119H3.71358V4.96452ZM12.3802 12.9645C12.3802 13.495 12.1695 14.0037 11.7945 14.3787C11.4194 14.7538 10.9107 14.9645 10.3802 14.9645H3.71358C3.18315 14.9645 2.67444 14.7538 2.29937 14.3787C1.9243 14.0037 1.71358 13.495 1.71358 12.9645V8.96452C1.71358 8.43409 1.9243 7.92538 2.29937 7.5503C2.67444 7.17523 3.18315 6.96452 3.71358 6.96452H10.3802C10.9107 6.96452 11.4194 7.17523 11.7945 7.5503C12.1695 7.92538 12.3802 8.43409 12.3802 8.96452V12.9645Z" fill="#A3A3A3"/>
<path d="M7.04692 9.63184C6.8701 9.63184 6.70054 9.70207 6.57551 9.8271C6.45049 9.95212 6.38025 10.1217 6.38025 10.2985V11.6318C6.38025 11.8086 6.45049 11.9782 6.57551 12.1032C6.70054 12.2283 6.8701 12.2985 7.04692 12.2985C7.22373 12.2985 7.3933 12.2283 7.51832 12.1032C7.64334 11.9782 7.71358 11.8086 7.71358 11.6318V10.2985C7.71358 10.1217 7.64334 9.95212 7.51832 9.8271C7.3933 9.70207 7.22373 9.63184 7.04692 9.63184Z" fill="#A3A3A3"/>
</svg>
